# xmcd CD database file
#
# Track frame offsets:
#	150
#	18890
#	30569
#	46760
#	61831
#	84512
#	101168
#	116797
#	133759
#	151034
#	177715
#	196151
#	208176
#	223145
#	243511
#	266332
#	283235
#	294255
#	311804
#	323372
#	342131
#
# Disc length: 4792 seconds
#
# Revision: 1
# Processed by: cddbd v1.5.2PL0 Copyright (c) Steve Scherf et al.
# Submitted via: CDex 1.51
#
DISCID=3112b615
DTITLE=Yuri Antonov - Platinovaja Kollekcija CD#1
DYEAR=2002
DGENRE=Pop
TTITLE0=Ot Pechali do Radosti
TTITLE1=Krysha Doma Tvoego
TTITLE2=Dvadcat' Let Spustya
TTITLE3=Vot Kak Byvaet
TTITLE4=Dolgozhdannyj Samolet
TTITLE5=Hmelnaya Siren'
TTITLE6=O Tebe i obo Mne
TTITLE7=Ya Idu Tebe na Vstrechu
TTITLE8=Ne Zabyvaj
TTITLE9=Esli...
TTITLE10=Tebe
TTITLE11=More
TTITLE12=Belyj Teplohod
TTITLE13=Beregite Zhenshchin
TTITLE14=Lunnaja Dorozhka
TTITLE15=Ne Rvite Cvety
TTITLE16=He Govorite Mne Proshchaj
TTITLE17=Ya ne Zhaleju ni o Chem
TTITLE18=Snegiri
TTITLE19=Vot i Vse
TTITLE20=Moj Put' Prost
EXTD=YEAR: 2002
EXTT0=
EXTT1=
EXTT2=
EXTT3=
EXTT4=
EXTT5=
EXTT6=
EXTT7=
EXTT8=
EXTT9=
EXTT10=
EXTT11=
EXTT12=
EXTT13=
EXTT14=
EXTT15=
EXTT16=
EXTT17=
EXTT18=
EXTT19=
EXTT20=
PLAYORDER=
